<svg width="53" height="25" viewBox="0 0 53 25" fill="none" xmlns="http://www.w3.org/2000/svg">
<path fill-rule="evenodd" clip-rule="evenodd" d="M1 0V11.9765H19.0502L13.7986 6.72483L14.5234 6L20.2971 11.7737L21 12.4766L20.2752 13.2014L14.4766 19L13.7737 18.2971L19.0944 12.9765H1V24H53V25H0V24V12.9765V11.9765L1.90735e-06 0H1ZM30.168 9V9.896H27.928V17H26.92V9.896H25.448V9H26.92V7.944C26.92 6.232 27.784 5.368 29.496 5.368H30.168V6.264H29.512C28.312 6.264 27.928 7 27.928 7.944V9H30.168ZM33.3755 9.896C33.8235 9.32 34.6075 8.792 35.9355 8.792C38.1755 8.792 39.5035 10.616 39.5035 13C39.5035 15.368 38.1755 17.208 35.9355 17.208C34.6075 17.208 33.7915 16.664 33.3435 16.104H33.0235V17H32.0475V5.368H33.0555V9.896H33.3755ZM33.0555 13C33.0555 14.68 33.8395 16.312 35.8075 16.312C37.5515 16.312 38.4955 14.968 38.4955 13C38.4955 11.032 37.5515 9.688 35.8075 9.688C33.8395 9.688 33.0555 11.304 33.0555 13Z" fill="#242424"/>
</svg>
