<svg width="87" height="30" viewBox="0 0 87 30" fill="none" xmlns="http://www.w3.org/2000/svg">
<path d="M6.994 0.843999V0.00399935H0.33V10H1.254V0.843999H6.994ZM12.195 6.066C12.195 4.414 11.215 2.818 9.185 2.818C7.099 2.818 5.867 4.288 5.867 6.416C5.867 8.502 7.029 10.182 9.199 10.182C10.893 10.182 11.831 9.272 12.055 8.152H11.173C10.949 8.922 10.277 9.398 9.199 9.398C7.715 9.398 6.749 8.278 6.749 6.542V6.346H12.195V6.066ZM9.157 3.602C10.501 3.602 11.215 4.568 11.285 5.562H6.805C6.959 4.568 7.729 3.602 9.157 3.602ZM20.1556 10V3H19.2736V5.996H15.0036V3H14.1216V10H15.0036V6.78H19.2736V10H20.1556ZM28.4098 6.066C28.4098 4.414 27.4298 2.818 25.3998 2.818C23.3138 2.818 22.0818 4.288 22.0818 6.416C22.0818 8.502 23.2438 10.182 25.4138 10.182C27.1078 10.182 28.0458 9.272 28.2698 8.152H27.3878C27.1638 8.922 26.4918 9.398 25.4138 9.398C23.9298 9.398 22.9638 8.278 22.9638 6.542V6.346H28.4098V6.066ZM25.3718 3.602C26.7158 3.602 27.4298 4.568 27.4998 5.562H23.0198C23.1738 4.568 23.9438 3.602 25.3718 3.602ZM33.7385 10.182C35.6985 10.182 36.8605 8.586 36.8605 6.5C36.8605 4.428 35.6985 2.818 33.7385 2.818C32.5765 2.818 31.8625 3.294 31.4705 3.784H31.1905V3H30.3365V12.8H31.2185V9.216H31.4985C31.8905 9.72 32.5765 10.182 33.7385 10.182ZM33.6265 3.602C35.1525 3.602 35.9785 4.778 35.9785 6.5C35.9785 8.222 35.1525 9.398 33.6265 9.398C31.9045 9.398 31.2185 7.984 31.2185 6.5C31.2185 5.03 31.9045 3.602 33.6265 3.602ZM43.3077 10H44.1617V5.142C44.1617 3.686 43.0837 2.818 41.3897 2.818C39.8637 2.818 38.7997 3.532 38.6877 4.806H39.5697C39.6257 4.064 40.2277 3.602 41.3897 3.602C42.7477 3.602 43.2797 4.302 43.2797 5.198V5.632H40.8437C38.9117 5.632 38.2257 6.822 38.2257 7.928C38.2257 9.104 39.1077 10.182 40.7597 10.182C41.7817 10.182 42.5937 9.776 43.0277 9.216H43.3077V10ZM40.8857 9.398C39.8217 9.398 39.1077 8.852 39.1077 7.858C39.1077 6.962 39.7937 6.374 41.0817 6.374H43.2797V7.2C43.2797 8.488 42.1877 9.398 40.8857 9.398ZM45.6023 10H45.8403C47.4223 10 48.0803 8.936 48.0803 5.618V3.784H51.4683V10H52.3503V3H47.2543V5.618C47.2543 8.404 46.8343 9.188 45.8403 9.188H45.6023V10ZM55.6091 3H54.7271V10H57.8211C59.4871 10 60.3971 9.132 60.3971 7.718C60.3971 6.304 59.4871 5.45 57.8211 5.45H55.6091V3ZM55.6091 9.216V6.234H57.7091C59.0531 6.234 59.5151 6.822 59.5151 7.732C59.5151 8.628 59.0531 9.216 57.7091 9.216H55.6091ZM68.1849 10V3H67.3029V5.996H63.0329V3H62.1509V10H63.0329V6.78H67.3029V10H68.1849ZM71.4411 3H70.5591V10H73.5131C75.1791 10 76.0891 9.132 76.0891 7.718C76.0891 6.304 75.1791 5.45 73.5131 5.45H71.4411V3ZM71.4411 9.216V6.234H73.4011C74.7451 6.234 75.2071 6.822 75.2071 7.732C75.2071 8.628 74.7451 9.216 73.4011 9.216H71.4411ZM78.1191 3H77.2371V10H78.1191V3ZM86.3786 6.066C86.3786 4.414 85.3986 2.818 83.3686 2.818C81.2826 2.818 80.0506 4.288 80.0506 6.416C80.0506 8.502 81.2126 10.182 83.3826 10.182C85.0766 10.182 86.0146 9.272 86.2386 8.152H85.3566C85.1326 8.922 84.4606 9.398 83.3826 9.398C81.8986 9.398 80.9326 8.278 80.9326 6.542V6.346H86.3786V6.066ZM83.3406 3.602C84.6846 3.602 85.3986 4.568 85.4686 5.562H80.9886C81.1426 4.568 81.9126 3.602 83.3406 3.602ZM6.168 27V20H0.19V27H1.072V20.784H5.286V27H6.168ZM13.0655 27H13.9195V22.142C13.9195 20.686 12.8415 19.818 11.1475 19.818C9.62152 19.818 8.55752 20.532 8.44552 21.806H9.32752C9.38352 21.064 9.98552 20.602 11.1475 20.602C12.5055 20.602 13.0375 21.302 13.0375 22.198V22.632H10.6015C8.66952 22.632 7.98352 23.822 7.98352 24.928C7.98352 26.104 8.86552 27.182 10.5175 27.182C11.5395 27.182 12.3515 26.776 12.7855 26.216H13.0655V27ZM10.6435 26.398C9.57952 26.398 8.86552 25.852 8.86552 24.858C8.86552 23.962 9.55152 23.374 10.8395 23.374H13.0375V24.2C13.0375 25.488 11.9455 26.398 10.6435 26.398ZM19.5881 27.182C21.5481 27.182 22.7101 25.586 22.7101 23.5C22.7101 21.428 21.5481 19.818 19.5881 19.818C18.4261 19.818 17.7121 20.294 17.3201 20.784H17.0401V20H16.1861V29.8H17.0681V26.216H17.3481C17.7401 26.72 18.4261 27.182 19.5881 27.182ZM19.4761 20.602C21.0021 20.602 21.8281 21.778 21.8281 23.5C21.8281 25.222 21.0021 26.398 19.4761 26.398C17.7541 26.398 17.0681 24.984 17.0681 23.5C17.0681 22.03 17.7541 20.602 19.4761 20.602ZM23.7286 20.784H26.2066V27H27.0886V20.784H29.5526V20H23.7286V20.784ZM37.1908 27V20H36.3088V22.996H32.0388V20H31.1568V27H32.0388V23.78H36.3088V27H37.1908ZM45.445 23.066C45.445 21.414 44.465 19.818 42.435 19.818C40.349 19.818 39.117 21.288 39.117 23.416C39.117 25.502 40.279 27.182 42.449 27.182C44.143 27.182 45.081 26.272 45.305 25.152H44.423C44.199 25.922 43.527 26.398 42.449 26.398C40.965 26.398 39.999 25.278 39.999 23.542V23.346H45.445V23.066ZM42.407 20.602C43.751 20.602 44.465 21.568 44.535 22.562H40.055C40.209 21.568 40.979 20.602 42.407 20.602ZM50.7736 27.182C52.7336 27.182 53.8956 25.586 53.8956 23.5C53.8956 21.428 52.7336 19.818 50.7736 19.818C49.6116 19.818 48.8976 20.294 48.5056 20.784H48.2256V20H47.3716V29.8H48.2536V26.216H48.5336C48.9256 26.72 49.6116 27.182 50.7736 27.182ZM50.6616 20.602C52.1876 20.602 53.0136 21.778 53.0136 23.5C53.0136 25.222 52.1876 26.398 50.6616 26.398C48.9396 26.398 48.2536 24.984 48.2536 23.5C48.2536 22.03 48.9396 20.602 50.6616 20.602ZM56.7029 20H55.8209V27H58.7749C60.4409 27 61.3509 26.132 61.3509 24.718C61.3509 23.304 60.4409 22.45 58.7749 22.45H56.7029V20ZM56.7029 26.216V23.234H58.6629C60.0069 23.234 60.4689 23.822 60.4689 24.732C60.4689 25.628 60.0069 26.216 58.6629 26.216H56.7029ZM63.3809 20H62.4989V27H63.3809V20Z" fill="#242424"/>
</svg>
