<svg width="62" height="25" viewBox="0 0 62 25" fill="none" xmlns="http://www.w3.org/2000/svg">
<path d="M27.928 9V6.52H26.92V9H25.448V9.896H26.92V14.856C26.92 16.44 27.784 17 29.496 17H30.056V16.104H29.512C28.312 16.104 27.928 15.656 27.928 14.744V9.896H30.056V9H27.928ZM35.624 11.8L34.104 16.008H33.784L32.792 9H31.8L32.92 17H34.664L36.184 12.76H36.504L38.024 17H39.768L40.888 9H39.896L38.92 16.008H38.6L37.128 11.8H35.624ZM44.6155 9V6.52H43.6075V9H42.1355V9.896H43.6075V14.856C43.6075 16.44 44.4715 17 46.1835 17H46.7435V16.104H46.1995C44.9995 16.104 44.6155 15.656 44.6155 14.744V9.896H46.7435V9H44.6155ZM53.2715 9H52.7275C51.6395 9 50.8075 9.416 50.3435 9.976H50.0235V9H49.0475V17H50.0555V12.776C50.0555 10.936 51.1275 9.928 52.6635 9.928H53.2715V9Z" fill="#242424"/>
<path fill-rule="evenodd" clip-rule="evenodd" d="M21 12.4766L20.2752 13.2014L14.4766 19L13.7737 18.2971L19.0944 12.9765L-3.63036e-07 12.9765L-3.10999e-07 11.9765L19.0502 11.9765L13.7986 6.72483L14.5234 6L20.2971 11.7737L21 12.4766Z" fill="#242424"/>
<line x1="0.5" y1="24" x2="0.500001" y2="-2.18557e-08" stroke="#242424"/>
<line y1="24.5" x2="62" y2="24.5" stroke="#242424"/>
</svg>
