<svg width="53" height="25" viewBox="0 0 53 25" fill="none" xmlns="http://www.w3.org/2000/svg">
<path d="M28.184 17H30.152L33 9H31.928L29.544 16.008H28.888L26.424 9H25.384L28.184 17ZM41.7266 17L38.8146 11.464L41.1346 9H39.8706L35.7586 13.384V5.368H34.7506V17H35.7586V14.68L37.8386 12.408H38.1586L40.6226 17H41.7266Z" fill="#242424"/>
<path fill-rule="evenodd" clip-rule="evenodd" d="M21 12.4766L20.2752 13.2014L14.4766 19L13.7737 18.2971L19.0944 12.9765L-3.63036e-07 12.9765L-3.10999e-07 11.9765L19.0502 11.9765L13.7986 6.72483L14.5234 6L20.2971 11.7737L21 12.4766Z" fill="#242424"/>
<line x1="0.5" y1="24" x2="0.500001" y2="-2.18557e-08" stroke="#242424"/>
<line y1="24.5" x2="53" y2="24.5" stroke="#242424"/>
</svg>
